<svg xmlns="http://www.w3.org/2000/svg" viewBox="0 0 1200 900" role="img" aria-labelledby="title desc">
  <title id="title">Commercial roof crew on a standing seam roof</title>
  <desc id="desc">Photo-style editorial illustration of a roof worker on a large metal roof with orange safety gear.</desc>
  <defs>
    <linearGradient id="sky" x1="0" x2="1" y1="0" y2="1">
      <stop offset="0" stop-color="#dfeef4"/>
      <stop offset="1" stop-color="#f8faf8"/>
    </linearGradient>
    <linearGradient id="metal" x1="0" x2="1">
      <stop offset="0" stop-color="#6f7779"/>
      <stop offset=".5" stop-color="#c8d1d1"/>
      <stop offset="1" stop-color="#3e4547"/>
    </linearGradient>
  </defs>
  <rect width="1200" height="900" fill="url(#sky)"/>
  <path d="M0 690 1200 430v470H0z" fill="url(#metal)"/>
  <g opacity=".42" stroke="#f8faf8" stroke-width="4">
    <path d="M105 668 471 900M282 630 688 900M456 592 905 900M630 555 1125 900M806 516 1200 782"/>
  </g>
  <path d="M0 742 1200 500" stroke="#111" stroke-width="8" opacity=".35"/>
  <g transform="translate(645 175)">
    <path d="M160 167c35 19 62 57 70 102l-82 24-55-92z" fill="#ff5a1f"/>
    <path d="m91 331 176 255-63 28L41 361z" fill="#171717"/>
    <path d="m172 315 128 234-57 35-141-223z" fill="#2c3333"/>
    <path d="M91 190c40-12 79-4 111 23 29 25 46 61 46 99 0 68-51 118-121 118-68 0-122-52-122-119 0-54 33-104 86-121z" fill="#222"/>
    <path d="M85 181c-4-46 28-88 73-93 46-5 88 28 92 73z" fill="#ff5a1f"/>
    <path d="M110 94c44-27 98-20 128 18l-31 24c-26-19-53-22-81-10z" fill="#111"/>
    <path d="M57 302 4 415" stroke="#ff5a1f" stroke-width="28" stroke-linecap="round"/>
    <path d="m225 292 106 64" stroke="#ff5a1f" stroke-width="30" stroke-linecap="round"/>
    <circle cx="157" cy="155" r="44" fill="#c98b68"/>
    <path d="M124 160c26 7 53 4 78-10" stroke="#111" stroke-width="10" stroke-linecap="round"/>
  </g>
  <g fill="#111" opacity=".08">
    <rect x="56" y="80" width="210" height="22"/>
    <rect x="56" y="120" width="140" height="22"/>
    <rect x="56" y="160" width="320" height="22"/>
  </g>
</svg>
