<svg xmlns="http://www.w3.org/2000/svg" viewBox="0 0 1200 900" role="img" aria-labelledby="title desc">
  <title id="title">Roof project collage</title>
  <desc id="desc">Editorial collage of metal roofing, flat roof surface, and a roof worker silhouette.</desc>
  <rect width="1200" height="900" fill="#f8f8f4"/>
  <rect x="0" y="0" width="740" height="530" fill="#111"/>
  <path d="M0 428 740 188v342H0z" fill="#7b8588"/>
  <g stroke="#e7eef1" stroke-width="5" opacity=".55">
    <path d="M80 410 250 530M240 360 490 530M430 300 720 530"/>
  </g>
  <rect x="780" y="0" width="420" height="360" fill="#dfeef4"/>
  <path d="M780 275 1200 95v265H780z" fill="#b6c2c4"/>
  <rect x="0" y="570" width="470" height="330" fill="#ff5a1f"/>
  <path d="M60 820h340v-40H60zm58-62h225v-34H118z" fill="#111"/>
  <rect x="510" y="400" width="690" height="500" fill="#202020"/>
  <path d="M510 785 1200 555v345H510z" fill="#636d70"/>
  <g transform="translate(852 468)" fill="#ff5a1f">
    <circle cx="82" cy="54" r="38"/>
    <path d="M42 100h86l62 182h-82z"/>
  </g>
</svg>
