<svg xmlns="http://www.w3.org/2000/svg" viewBox="0 0 1653 1096" role="img" aria-label="Vicwest Roofing">
  <g transform="translate(0,823) scale(0.1,-0.1)">
    <path d="M1604 8213 c14 -36 4108 -7193 4114 -7193 11 1 2337 4080 2337 4098
0 18 -945 1692 -955 1692 -3 0 -313 -543 -690 -1206 -377 -663 -688 -1208
-691 -1210 -4 -2 -500 860 -1103 1916 l-1097 1920 -961 0 c-903 0 -960 -1
-954 -17z" fill="#FFFFFF"/>
    <path d="M7367 7223 c-3 -5 207 -383 466 -840 l472 -832 1345 -4 c1498 -3
1375 3 1536 -72 650 -299 657 -1214 13 -1520 -175 -83 -126 -79 -1092 -83
-472 -1 -857 -6 -855 -11 2 -4 484 -850 1072 -1879 l1068 -1872 965 0 c530 0
962 3 960 8 -72 123 -1330 2329 -1334 2338 -3 8 15 24 47 41 103 56 317 201
410 278 805 670 1112 1743 783 2735 -119 360 -328 696 -608 975 -398 399 -873
634 -1455 722 -105 15 -274 17 -1952 20 -1010 2 -1839 0 -1841 -4z" fill="#FFFFFF"/>
  </g>
  <g transform="translate(0,1096) scale(0.1,-0.1)">
    <path d="M13 1053 c-7 -2 -13 -12 -13 -21 0 -18 407 -999 423 -1019 14 -18
331 -18 344 -1 17 23 423 1002 423 1020 0 24 -34 31 -145 26 -71 -2 -98 -7
-105 -18 -6 -8 -83 -198 -172 -422 -89 -225 -165 -408 -168 -408 -3 0 -79 187
-170 416 -138 347 -169 418 -188 425 -24 9 -208 11 -229 2z" fill="#FFFFFF"/>
    <path d="M1322 1048 c-9 -9 -12 -141 -12 -530 l0 -519 123 3 122 3 3 515 c2
475 1 516 -15 528 -23 16 -204 17 -221 0z" fill="#FFFFFF"/>
    <path d="M1939 1050 c-84 -15 -133 -52 -166 -125 -16 -35 -18 -78 -21 -373 -4
-425 5 -473 103 -529 40 -23 40 -23 450 -21 406 3 410 3 441 25 50 36 68 84
72 196 5 127 5 127 -117 127 -53 0 -101 -4 -107 -8 -6 -4 -13 -30 -16 -59 -8
-86 3 -83 -279 -83 -236 0 -250 1 -269 20 -19 19 -20 33 -20 303 0 276 1 284
21 303 19 17 42 19 263 22 280 3 273 6 284 -83 l7 -60 115 0 115 0 3 87 c5
143 -25 207 -110 244 -39 16 -79 19 -383 20 -187 2 -361 -1 -386 -6z" fill="#FFFFFF"/>
    <path d="M2901 1046 c-9 -10 22 -133 133 -527 l143 -514 181 -3 c165 -2 181
-1 186 15 3 10 46 178 97 373 50 195 92 356 93 357 1 1 44 -166 97 -370 l96
-372 181 -3 c165 -2 181 -1 186 15 3 10 69 243 146 518 162 576 160 525 21
525 -100 0 -127 -6 -136 -28 -4 -10 -54 -195 -111 -412 -58 -217 -106 -399
-107 -404 -2 -4 -49 176 -106 402 -57 225 -107 416 -112 423 -12 20 -267 26
-291 7 -11 -9 -50 -143 -121 -423 l-104 -410 -16 55 c-8 30 -57 213 -107 405
-69 266 -96 354 -112 368 -26 22 -219 25 -237 3z" fill="#FFFFFF"/>
    <path d="M4708 1049 c-17 -9 -18 -45 -18 -529 l0 -520 515 0 515 0 0 90 c0 78
-2 91 -19 100 -13 6 -154 10 -390 10 l-371 0 0 110 0 110 313 0 c375 0 357 -5
357 105 0 112 24 105 -351 105 l-319 0 0 110 0 110 388 2 387 3 3 90 c2 76 0
92 -14 102 -23 17 -969 18 -996 2z" fill="#FFFFFF"/>
    <path d="M6030 1046 c-72 -15 -113 -45 -142 -104 -21 -43 -23 -60 -23 -202 0
-142 2 -159 23 -202 51 -103 80 -110 462 -116 195 -2 320 -8 328 -14 16 -14
17 -179 0 -196 -17 -17 -549 -17 -566 0 -7 7 -12 26 -12 44 0 49 -15 55 -136
52 l-109 -3 0 -90 c1 -107 23 -159 85 -194 37 -20 49 -21 448 -21 441 0 446 1
500 53 47 46 62 107 62 257 0 191 -26 252 -125 297 -35 16 -81 18 -363 23
-272 4 -324 7 -332 20 -6 8 -9 51 -8 95 4 108 -5 105 283 105 259 0 275 -4
275 -64 0 -50 13 -56 121 -56 127 0 134 6 126 106 -10 137 -54 192 -171 213
-82 15 -654 13 -726 -3z" fill="#FFFFFF"/>
    <path d="M7046 1047 c-14 -10 -16 -26 -14 -102 l3 -90 203 -3 202 -2 0 -426 0
-425 123 3 122 3 3 423 2 422 193 0 c137 0 196 3 205 12 19 19 16 163 -4 182
-21 22 -1009 24 -1038 3z" fill="#FFFFFF"/>
    <path d="M8676 1038 c-14 -20 -16 -80 -16 -518 0 -272 4 -501 8 -508 7 -9 39
-12 128 -10 l119 3 3 168 2 167 134 0 134 0 152 -170 152 -170 149 0 c82 0
149 3 149 8 0 4 -73 84 -162 177 l-162 170 69 6 c109 8 174 55 200 143 18 60
21 340 4 401 -16 57 -55 104 -108 129 -44 20 -61 21 -492 24 l-447 3 -16 -23z
m784 -201 c24 -12 25 -16 28 -133 2 -103 0 -123 -14 -135 -13 -11 -74 -15
-286 -17 l-268 -3 0 150 0 151 258 0 c187 0 264 -4 282 -13z" fill="#FFFFFF"/>
    <path d="M10087 1050 c-74 -13 -131 -52 -159 -107 -23 -48 -23 -50 -23 -423 0
-423 0 -420 79 -484 l38 -31 429 -3 c412 -3 430 -2 468 17 43 22 72 57 89 110
8 23 12 149 12 400 0 399 -2 414 -61 468 -61 56 -75 58 -464 60 -198 1 -381
-2 -408 -7z m664 -229 c19 -23 20 -39 17 -308 -3 -268 -4 -285 -22 -299 -30
-22 -532 -21 -564 2 -22 15 -22 17 -22 302 0 158 4 292 8 299 18 28 63 32 310
30 l254 -2 19 -24z" fill="#FFFFFF"/>
    <path d="M11389 1050 c-96 -17 -160 -74 -178 -160 -15 -67 -15 -662 0 -729 14
-65 45 -110 94 -138 40 -23 43 -23 458 -23 396 0 420 1 456 20 22 11 48 31 59
45 44 56 47 82 47 455 0 390 -3 416 -63 473 -63 60 -73 62 -467 64 -198 1
-381 -2 -406 -7z m662 -229 c18 -22 19 -42 19 -302 0 -266 -1 -280 -20 -299
-19 -19 -33 -20 -285 -20 -252 0 -266 1 -285 20 -19 19 -20 33 -20 303 0 303
0 301 50 320 8 3 129 5 268 4 254 -2 254 -2 273 -26z" fill="#FFFFFF"/>
    <path d="M12537 1048 c-16 -12 -17 -53 -15 -528 l3 -515 119 -3 c89 -2 121 1
128 10 4 7 8 100 8 206 l0 192 305 0 c350 0 325 -8 325 100 0 108 25 100 -325
100 l-305 0 0 120 0 120 365 0 c419 0 385 -9 385 102 0 41 -5 71 -16 86 l-15
22 -473 0 c-362 0 -476 -3 -489 -12z" fill="#FFFFFF"/>
    <path d="M13678 1049 c-17 -9 -18 -45 -18 -529 l0 -520 125 0 125 0 0 520 c0
503 -1 520 -19 530 -25 13 -191 13 -213 -1z" fill="#FFFFFF"/>
    <path d="M14138 1049 c-17 -9 -18 -45 -18 -529 l0 -520 115 0 115 0 2 419 3
419 253 -419 254 -419 191 2 192 3 3 512 c2 455 0 513 -14 527 -20 20 -181 23
-207 4 -15 -12 -17 -52 -19 -425 l-3 -411 -253 418 c-187 309 -258 419 -275
424 -37 10 -321 6 -339 -5z" fill="#FFFFFF"/>
    <path d="M15621 1050 c-70 -15 -113 -43 -146 -95 l-30 -48 -3 -351 c-4 -393 1
-435 51 -493 56 -63 53 -63 510 -63 413 0 414 0 447 22 75 51 75 52 75 321 l0
242 -249 3 c-179 2 -252 -1 -263 -9 -10 -9 -13 -33 -11 -98 l3 -86 143 -3 142
-3 0 -82 c0 -51 -5 -88 -12 -95 -9 -9 -84 -12 -274 -12 -243 0 -263 1 -285 19
-24 19 -24 20 -27 274 -4 293 2 329 50 346 19 7 124 11 273 11 274 0 275 0
275 -77 0 -59 12 -64 131 -61 l104 3 3 105 c3 131 -15 171 -93 210 l-50 25
-360 2 c-198 1 -380 -2 -404 -7z" fill="#FFFFFF"/>
  </g>
</svg>