<svg width="1200" height="520" viewBox="0 0 1200 520" fill="none" xmlns="http://www.w3.org/2000/svg">
  <rect width="1200" height="520" rx="36" fill="#FFF6EC"/>
  <text x="64" y="82" fill="#17191C" font-family="Inter, Arial, sans-serif" font-size="34" font-weight="800">profitslocal color palette</text>
  <text x="64" y="124" fill="#5E6268" font-family="Inter, Arial, sans-serif" font-size="18">Warm, light-mode, local-first, creative, trustworthy.</text>
  <g font-family="Inter, Arial, sans-serif" font-size="15" font-weight="700">
    <g transform="translate(64,170)"><rect width="120" height="120" rx="24" fill="#FFF6EC" stroke="#EAD6C4"/><text y="154" fill="#17191C">Cream</text><text y="178" fill="#5E6268">#FFF6EC</text></g>
    <g transform="translate(204,170)"><rect width="120" height="120" rx="24" fill="#FFFCF7" stroke="#EAD6C4"/><text y="154" fill="#17191C">Paper</text><text y="178" fill="#5E6268">#FFFCF7</text></g>
    <g transform="translate(344,170)"><rect width="120" height="120" rx="24" fill="#17191C"/><text y="154" fill="#17191C">Charcoal</text><text y="178" fill="#5E6268">#17191C</text></g>
    <g transform="translate(484,170)"><rect width="120" height="120" rx="24" fill="#FF5A3D"/><text y="154" fill="#17191C">Coral</text><text y="178" fill="#5E6268">#FF5A3D</text></g>
    <g transform="translate(624,170)"><rect width="120" height="120" rx="24" fill="#FFB39F"/><text y="154" fill="#17191C">Coral Soft</text><text y="178" fill="#5E6268">#FFB39F</text></g>
    <g transform="translate(764,170)"><rect width="120" height="120" rx="24" fill="#FFD45A"/><text y="154" fill="#17191C">Citrus</text><text y="178" fill="#5E6268">#FFD45A</text></g>
    <g transform="translate(904,170)"><rect width="120" height="120" rx="24" fill="#CDECCF"/><text y="154" fill="#17191C">Mint</text><text y="178" fill="#5E6268">#CDECCF</text></g>
    <g transform="translate(1044,170)"><rect width="120" height="120" rx="24" fill="#47B86A"/><text y="154" fill="#17191C">Green</text><text y="178" fill="#5E6268">#47B86A</text></g>
    <g transform="translate(64,370)"><rect width="120" height="80" rx="22" fill="#8BD3F7"/><text y="112" fill="#17191C">Sky</text><text y="136" fill="#5E6268">#8BD3F7</text></g>
    <g transform="translate(204,370)"><rect width="120" height="80" rx="22" fill="#327BEA"/><text y="112" fill="#17191C">Blue</text><text y="136" fill="#5E6268">#327BEA</text></g>
    <g transform="translate(344,370)"><rect width="120" height="80" rx="22" fill="#FFE1CE"/><text y="112" fill="#17191C">Peach</text><text y="136" fill="#5E6268">#FFE1CE</text></g>
    <g transform="translate(484,370)"><rect width="120" height="80" rx="22" fill="#EADCFB"/><text y="112" fill="#17191C">Lilac Soft</text><text y="136" fill="#5E6268">#EADCFB</text></g>
  </g>
</svg>
