<svg width="256" height="256" viewBox="0 0 256 256" fill="none" xmlns="http://www.w3.org/2000/svg" role="img" aria-label="profitslocal logo mark">
  <defs>
    <linearGradient id="g" x1="48" y1="24" x2="216" y2="232" gradientUnits="userSpaceOnUse">
      <stop offset="0" stop-color="#FF7A52"/>
      <stop offset="0.58" stop-color="#FF5A3D"/>
      <stop offset="1" stop-color="#FFB39F"/>
    </linearGradient>
  </defs>
  <path d="M128 22C80.5 22 42 60.3 42 107.6c0 66.4 86 126.4 86 126.4s86-60 86-126.4C214 60.3 175.5 22 128 22Z" fill="url(#g)"/>
  <path d="M128 62c-26.7 0-48.3 21.5-48.3 48.1 0 17.1 8.9 32.1 22.4 40.6l25.9 16.1 25.9-16.1c13.5-8.5 22.4-23.5 22.4-40.6C176.3 83.5 154.7 62 128 62Z" fill="#FFFCF7"/>
  <path d="M128 81c-16.1 0-29.2 13-29.2 29.1 0 18.3 29.2 37.9 29.2 37.9s29.2-19.6 29.2-37.9C157.2 94 141.1 81 128 81Z" fill="url(#g)" opacity="0.95"/>
  <circle cx="128" cy="109" r="13" fill="#FFFCF7"/>
</svg>
