<svg width="720" height="160" viewBox="0 0 720 160" fill="none" xmlns="http://www.w3.org/2000/svg" role="img" aria-label="profitslocal logo horizontal">
  <defs>
    <linearGradient id="g" x1="22" y1="14" x2="132" y2="142" gradientUnits="userSpaceOnUse">
      <stop offset="0" stop-color="#FF7A52"/>
      <stop offset="0.58" stop-color="#FF5A3D"/>
      <stop offset="1" stop-color="#FFB39F"/>
    </linearGradient>
  </defs>
  <path d="M80 18C48.2 18 22 43.8 22 75.4C22 119.8 80 150 80 150s58-30.2 58-74.6C138 43.8 111.8 18 80 18Z" fill="url(#g)"/>
  <path d="M80 43.5c-18.1 0-32.7 14.5-32.7 32.5 0 11.6 6 21.7 15.2 27.5L80 114.4l17.5-10.9c9.2-5.8 15.2-15.9 15.2-27.5 0-18-14.6-32.5-32.7-32.5Z" fill="#FFFCF7"/>
  <path d="M80 56.4c-10.9 0-19.8 8.8-19.8 19.7 0 12.4 19.8 25.7 19.8 25.7s19.8-13.3 19.8-25.7c0-10.9-8.9-19.7-19.8-19.7Z" fill="url(#g)" opacity="0.95"/>
  <circle cx="80" cy="75.9" r="8.8" fill="#FFFCF7"/>
  <text x="168" y="101" fill="#17191C" font-family="Inter, Manrope, Arial, sans-serif" font-size="66" font-weight="800" letter-spacing="-3">profitslocal</text>
</svg>
