<svg xmlns="http://www.w3.org/2000/svg" viewBox="0 0 960 640" role="img" aria-labelledby="title desc">
  <title id="title">Roof restoration work on a Brisbane home</title>
  <desc id="desc">A clean trade-style illustration of a tiled roof, ladder, gutters, and blue Brisbane sky.</desc>
  <defs>
    <linearGradient id="sky" x1="0" x2="0" y1="0" y2="1">
      <stop offset="0" stop-color="#d7edf5"/>
      <stop offset="1" stop-color="#f6f8f4"/>
    </linearGradient>
    <linearGradient id="tile" x1="0" x2="1" y1="0" y2="1">
      <stop offset="0" stop-color="#9c4631"/>
      <stop offset="1" stop-color="#5f2e27"/>
    </linearGradient>
    <linearGradient id="fresh" x1="0" x2="1" y1="0" y2="1">
      <stop offset="0" stop-color="#c45f3f"/>
      <stop offset="1" stop-color="#7a382c"/>
    </linearGradient>
  </defs>
  <rect width="960" height="640" fill="url(#sky)"/>
  <circle cx="792" cy="120" r="54" fill="#f2c55c" opacity=".9"/>
  <path d="M70 500h820v80H70z" fill="#e9ece4"/>
  <path d="M144 416h672v104H144z" fill="#f7f3eb" stroke="#24343a" stroke-width="8"/>
  <path d="M128 414h704" stroke="#24343a" stroke-width="16" stroke-linecap="round"/>
  <path d="M112 404 478 186c14-8 30-8 44 0l326 218H112z" fill="url(#tile)" stroke="#24343a" stroke-width="10" stroke-linejoin="round"/>
  <path d="M488 182 842 404H612L462 224z" fill="url(#fresh)" opacity=".98"/>
  <g stroke="#d5906c" stroke-width="4" opacity=".72">
    <path d="M162 386h644"/>
    <path d="M202 360h564"/>
    <path d="M244 334h484"/>
    <path d="M286 308h402"/>
    <path d="M330 282h314"/>
    <path d="M374 256h226"/>
  </g>
  <g stroke="#24343a" stroke-width="5" opacity=".65">
    <path d="M184 403 482 206"/>
    <path d="M250 403 507 215"/>
    <path d="M316 403 532 231"/>
    <path d="M382 403 558 247"/>
    <path d="M448 403 584 264"/>
    <path d="M514 403 610 281"/>
    <path d="M580 403 636 298"/>
    <path d="M646 403 662 315"/>
  </g>
  <path d="M132 430h700v26H132z" fill="#2f454d"/>
  <path d="M154 456h652v18H154z" fill="#78919a"/>
  <g transform="translate(690 330) rotate(-13)">
    <rect x="0" y="0" width="42" height="190" rx="7" fill="#f5c85e" stroke="#24343a" stroke-width="6"/>
    <path d="M7 34h28M7 70h28M7 106h28M7 142h28" stroke="#24343a" stroke-width="5"/>
  </g>
  <g transform="translate(238 426)">
    <rect x="0" y="0" width="112" height="78" rx="6" fill="#dfe6e4" stroke="#24343a" stroke-width="6"/>
    <path d="M16 24h80M16 48h80" stroke="#8da0a5" stroke-width="5"/>
  </g>
  <g transform="translate(430 428)">
    <rect x="0" y="0" width="126" height="76" rx="6" fill="#dfe6e4" stroke="#24343a" stroke-width="6"/>
    <path d="M18 38h90" stroke="#8da0a5" stroke-width="8" stroke-linecap="round"/>
  </g>
  <path d="M625 218c54 8 95 39 122 92" fill="none" stroke="#f6f8f4" stroke-width="12" stroke-linecap="round" opacity=".8"/>
  <path d="M622 248c38 8 68 30 88 67" fill="none" stroke="#f6f8f4" stroke-width="8" stroke-linecap="round" opacity=".75"/>
</svg>
