<svg xmlns="http://www.w3.org/2000/svg" viewBox="0 0 900 650" role="img" aria-label="Slate roof replacement project">
  <defs><linearGradient id="g" x1="0" x2="1" y1="0" y2="1"><stop stop-color="#d8e1e7"/><stop offset="1" stop-color="#f8f6ef"/></linearGradient></defs>
  <rect width="900" height="650" fill="url(#g)"/>
  <path d="M0 352 L360 128 L900 344 L900 650 L0 650 Z" fill="#1c2b3e"/>
  <path d="M0 382 L900 382 L900 650 L0 650 Z" fill="#f5f0e7"/>
  <path d="M360 128 L900 344 L880 386 L340 175 Z" fill="#2f4156"/>
  <g stroke="#617183" stroke-width="3" opacity=".55">
    <path d="M42 367 H852"/><path d="M30 394 H870"/><path d="M20 421 H900"/>
    <path d="M360 150 L825 338"/><path d="M317 176 L789 357"/>
  </g>
  <rect x="95" y="438" width="150" height="140" fill="#19304a"/>
  <rect x="315" y="438" width="150" height="140" fill="#19304a"/>
  <rect x="600" y="438" width="150" height="140" fill="#19304a"/>
</svg>
