<svg xmlns="http://www.w3.org/2000/svg" viewBox="0 0 900 650" role="img" aria-label="Roof inspection detail">
  <rect width="900" height="650" fill="#eef2f1"/>
  <path d="M0 455 L900 285 L900 650 L0 650 Z" fill="#172537"/>
  <g stroke="#6f7d8d" stroke-width="3" opacity=".5"><path d="M10 468 L900 300"/><path d="M10 498 L900 330"/><path d="M10 528 L900 360"/></g>
  <circle cx="382" cy="235" r="48" fill="#d9a15c"/>
  <path d="M315 295 C350 260 430 260 470 298 L492 430 L290 465 Z" fill="#2f5f3c"/>
  <path d="M290 465 L492 430 L525 560 L245 590 Z" fill="#1c2d42"/>
  <rect x="500" y="175" width="210" height="42" rx="8" fill="#f6f0e7" transform="rotate(20 500 175)"/>
  <rect x="620" y="205" width="30" height="180" rx="8" fill="#d9a15c" transform="rotate(20 620 205)"/>
</svg>
