<svg xmlns="http://www.w3.org/2000/svg" viewBox="0 0 1600 1000" role="img" aria-label="Premium home roofline at dusk">
  <defs>
    <linearGradient id="sky" x1="0" x2="1" y1="0" y2="1">
      <stop offset="0" stop-color="#07182b"/>
      <stop offset=".52" stop-color="#123356"/>
      <stop offset="1" stop-color="#0a1422"/>
    </linearGradient>
    <linearGradient id="roof" x1="0" x2="1">
      <stop offset="0" stop-color="#0b1725"/>
      <stop offset=".55" stop-color="#253447"/>
      <stop offset="1" stop-color="#0c1520"/>
    </linearGradient>
    <filter id="grain">
      <feTurbulence type="fractalNoise" baseFrequency=".75" numOctaves="3" stitchTiles="stitch"/>
      <feColorMatrix type="saturate" values="0"/>
      <feComponentTransfer><feFuncA type="table" tableValues="0 .16"/></feComponentTransfer>
      <feBlend mode="overlay" in2="SourceGraphic"/>
    </filter>
    <radialGradient id="warm" cx=".72" cy=".36" r=".44">
      <stop offset="0" stop-color="#e3a765" stop-opacity=".45"/>
      <stop offset=".62" stop-color="#e3a765" stop-opacity="0"/>
    </radialGradient>
  </defs>
  <rect width="1600" height="1000" fill="url(#sky)"/>
  <rect width="1600" height="1000" fill="url(#warm)"/>
  <g filter="url(#grain)">
    <path d="M0 650 L470 315 L960 650 Z" fill="url(#roof)"/>
    <path d="M445 318 L1600 595 L1600 1000 L915 1000 L960 650 Z" fill="#0c1623"/>
    <path d="M0 650 L960 650 L905 730 L0 730 Z" fill="#1f2c3b"/>
    <path d="M960 650 L1600 595 L1600 710 L905 730 Z" fill="#29384a"/>
    <path d="M112 680 H873 V1000 H112 Z" fill="#f2eee6"/>
    <path d="M1020 690 H1490 V1000 H1020 Z" fill="#ebe7dd"/>
    <g fill="#142335">
      <rect x="205" y="740" width="120" height="190"/>
      <rect x="380" y="740" width="120" height="190"/>
      <rect x="1110" y="745" width="106" height="170"/>
      <rect x="1270" y="745" width="106" height="170"/>
    </g>
    <g stroke="#5e6a78" stroke-width="7" opacity=".55">
      <path d="M90 659 H890"/>
      <path d="M955 649 L1580 597"/>
      <path d="M480 326 L920 646"/>
      <path d="M350 405 L780 650"/>
    </g>
    <g stroke="#344457" stroke-width="2" opacity=".7">
      <path d="M80 690 H890"/><path d="M80 715 H880"/><path d="M80 740 H865"/>
      <path d="M1015 660 L1580 615"/><path d="M1015 685 L1580 640"/><path d="M1015 710 L1580 665"/>
    </g>
  </g>
</svg>
