<svg xmlns="http://www.w3.org/2000/svg" viewBox="0 0 1000 620" role="img" aria-label="Before and after roof transformation">
  <rect width="1000" height="620" fill="oklch(94% 0.012 78)"/>
  <rect x="64" y="76" width="408" height="468" rx="18" fill="oklch(99% 0.005 80)"/>
  <rect x="528" y="76" width="408" height="468" rx="18" fill="oklch(99% 0.005 80)"/>
  <path d="M90 325 268 190 446 325v176H90Z" fill="oklch(46% 0.018 75)"/>
  <path d="M555 325 733 190 911 325v176H555Z" fill="oklch(21% 0.04 245)"/>
  <g opacity=".42" stroke="oklch(70% 0.018 75)" stroke-width="4">
    <path d="M118 330h300M118 380h300M118 430h300"/>
  </g>
  <g opacity=".48" stroke="oklch(61% 0.025 245)" stroke-width="4">
    <path d="M582 330h300M582 380h300M582 430h300"/>
  </g>
  <path d="M90 325 268 190 446 325" fill="none" stroke="oklch(34% 0.018 75)" stroke-width="22" stroke-linejoin="round"/>
  <path d="M555 325 733 190 911 325" fill="none" stroke="oklch(58% 0.11 145)" stroke-width="22" stroke-linejoin="round"/>
  <text x="102" y="124" font-family="ui-monospace, Menlo, monospace" font-size="24" fill="oklch(50% 0.018 50)">BEFORE</text>
  <text x="566" y="124" font-family="ui-monospace, Menlo, monospace" font-size="24" fill="oklch(50% 0.018 50)">AFTER</text>
</svg>
