<svg xmlns="http://www.w3.org/2000/svg" viewBox="0 0 1400 980" role="img" aria-label="Premium residential roof at blue hour">
  <defs>
    <linearGradient id="sky" x1="0" y1="0" x2="1" y2="1">
      <stop offset="0" stop-color="oklch(21% 0.05 250)"/>
      <stop offset="0.58" stop-color="oklch(32% 0.055 245)"/>
      <stop offset="1" stop-color="oklch(45% 0.07 55)"/>
    </linearGradient>
    <linearGradient id="roof" x1="0" y1="0" x2="1" y2="1">
      <stop offset="0" stop-color="oklch(30% 0.045 240)"/>
      <stop offset="1" stop-color="oklch(15% 0.035 245)"/>
    </linearGradient>
    <filter id="soft" x="-20%" y="-20%" width="140%" height="140%">
      <feGaussianBlur stdDeviation="18"/>
    </filter>
  </defs>
  <rect width="1400" height="980" fill="url(#sky)"/>
  <circle cx="1130" cy="190" r="150" fill="oklch(87% 0.09 70)" opacity=".18" filter="url(#soft)"/>
  <path d="M0 610 350 365 700 610Z" fill="url(#roof)"/>
  <path d="M330 365 700 610 1120 338 1400 505v475H0V610Z" fill="oklch(18% 0.036 245)"/>
  <path d="M700 610 1120 338 1400 505v128L1120 465 700 738Z" fill="oklch(11% 0.03 245)" opacity=".85"/>
  <path d="M330 365 700 610 700 738 330 493 0 722V610Z" fill="oklch(24% 0.04 245)"/>
  <g opacity=".36" stroke="oklch(65% 0.035 235)" stroke-width="3">
    <path d="M380 400 80 610"/>
    <path d="M455 450 155 660"/>
    <path d="M530 500 230 710"/>
    <path d="M605 550 305 760"/>
    <path d="M760 595 1160 338"/>
    <path d="M830 645 1230 388"/>
    <path d="M900 695 1300 438"/>
  </g>
  <rect x="735" y="690" width="560" height="290" fill="oklch(93% 0.014 76)"/>
  <rect x="790" y="755" width="135" height="110" fill="oklch(21% 0.04 248)"/>
  <rect x="990" y="755" width="135" height="110" fill="oklch(21% 0.04 248)"/>
  <rect x="0" y="0" width="1400" height="980" fill="oklch(10% 0.03 245)" opacity=".18"/>
</svg>
