<svg xmlns="http://www.w3.org/2000/svg" viewBox="0 0 700 520" role="img" aria-labelledby="title desc">
  <title id="title">Profiled roof tile material sample</title>
  <desc id="desc">Original material tile for profiled roof tile systems.</desc>
  <rect width="700" height="520" fill="oklch(80% 0.04 62)"/>
  <g fill="none" stroke-linecap="round" stroke-width="72">
    <path d="M-40 95C30 20 100 20 170 95s140 75 210 0 140-75 210 0 140 75 210 0" stroke="oklch(60% 0.06 52)"/>
    <path d="M-40 245C30 170 100 170 170 245s140 75 210 0 140-75 210 0 140 75 210 0" stroke="oklch(54% 0.055 50)"/>
    <path d="M-40 395C30 320 100 320 170 395s140 75 210 0 140-75 210 0 140 75 210 0" stroke="oklch(64% 0.06 56)"/>
  </g>
  <g fill="none" stroke="oklch(92% 0.025 72)" stroke-width="8" opacity=".28">
    <path d="M-40 95C30 20 100 20 170 95s140 75 210 0 140-75 210 0 140 75 210 0"/>
    <path d="M-40 245C30 170 100 170 170 245s140 75 210 0 140-75 210 0 140 75 210 0"/>
    <path d="M-40 395C30 320 100 320 170 395s140 75 210 0 140-75 210 0 140 75 210 0"/>
  </g>
</svg>
