<svg xmlns="http://www.w3.org/2000/svg" viewBox="0 0 900 760" role="img" aria-labelledby="title desc">
  <title id="title">Roof inspection and service planning</title>
  <desc id="desc">Original service image showing roof planes, inspection markers, and a calm premium palette.</desc>
  <defs>
    <linearGradient id="bg" x1="0" x2="1" y1="0" y2="1">
      <stop offset="0" stop-color="oklch(96% 0.008 230)"/>
      <stop offset="1" stop-color="oklch(86% 0.012 220)"/>
    </linearGradient>
    <linearGradient id="plane" x1="0" x2="1" y1="0" y2="1">
      <stop offset="0" stop-color="oklch(54% 0.015 225)"/>
      <stop offset="1" stop-color="oklch(31% 0.017 240)"/>
    </linearGradient>
  </defs>
  <rect width="900" height="760" rx="36" fill="url(#bg)"/>
  <path d="M60 460 430 198 840 466v214H60z" fill="url(#plane)"/>
  <path d="M126 492 432 276 792 510" stroke="oklch(82% 0.012 225)" stroke-width="3" fill="none" opacity=".5"/>
  <g stroke="oklch(80% 0.012 225)" stroke-width="2" opacity=".35">
    <path d="M166 532 452 330 822 570"/>
    <path d="M230 582 478 404 856 650"/>
    <path d="M430 198v482M520 258v422M610 318v362M700 378v302"/>
  </g>
  <g fill="oklch(58% 0.12 155)">
    <circle cx="392" cy="368" r="12"/>
    <circle cx="548" cy="440" r="12"/>
    <circle cx="676" cy="510" r="12"/>
  </g>
  <g fill="oklch(98% 0 0)" stroke="oklch(84% 0.012 230)" stroke-width="2">
    <rect x="92" y="78" width="250" height="124" rx="18"/>
    <rect x="580" y="96" width="230" height="150" rx="18"/>
  </g>
  <g fill="oklch(28% 0.018 240)">
    <rect x="122" y="112" width="138" height="10" rx="5"/>
    <rect x="122" y="140" width="188" height="8" rx="4" opacity=".45"/>
    <rect x="122" y="162" width="104" height="8" rx="4" opacity=".45"/>
    <rect x="610" y="130" width="128" height="10" rx="5"/>
    <rect x="610" y="158" width="170" height="8" rx="4" opacity=".45"/>
    <rect x="610" y="180" width="112" height="8" rx="4" opacity=".45"/>
  </g>
</svg>
