<svg xmlns="http://www.w3.org/2000/svg" viewBox="0 0 1653 1653" role="img" aria-label="VR">
  <g transform="translate(0,1238) scale(0.1,-0.1)">
    <path d="M1604 8213 c14 -36 4108 -7193 4114 -7193 11 1 2337 4080 2337 4098
0 18 -945 1692 -955 1692 -3 0 -313 -543 -690 -1206 -377 -663 -688 -1208
-691 -1210 -4 -2 -500 860 -1103 1916 l-1097 1920 -961 0 c-903 0 -960 -1
-954 -17z" fill="#000000"/>
    <path d="M7367 7223 c-3 -5 207 -383 466 -840 l472 -832 1345 -4 c1498 -3
1375 3 1536 -72 650 -299 657 -1214 13 -1520 -175 -83 -126 -79 -1092 -83
-472 -1 -857 -6 -855 -11 2 -4 484 -850 1072 -1879 l1068 -1872 965 0 c530 0
962 3 960 8 -72 123 -1330 2329 -1334 2338 -3 8 15 24 47 41 103 56 317 201
410 278 805 670 1112 1743 783 2735 -119 360 -328 696 -608 975 -398 399 -873
634 -1455 722 -105 15 -274 17 -1952 20 -1010 2 -1839 0 -1841 -4z" fill="#6D6E71"/>
  </g>
</svg>