<svg xmlns="http://www.w3.org/2000/svg" viewBox="0 0 900 720" role="img" aria-labelledby="title desc">
  <title id="title">Roofer working on roof frame</title>
  <desc id="desc">A tasteful illustrated roofer figure inspecting a roof frame with tools nearby.</desc>
  <defs>
    <linearGradient id="paper" x1="0" y1="0" x2="1" y2="1">
      <stop offset="0" stop-color="#f9f2e7"/>
      <stop offset="1" stop-color="#dbc7a7"/>
    </linearGradient>
  </defs>
  <rect width="900" height="720" fill="url(#paper)"/>
  <path d="M64 570 L464 188 L840 570" fill="none" stroke="#22221e" stroke-width="32" stroke-linejoin="round"/>
  <path d="M152 570 L464 274 L760 570" fill="none" stroke="#aa7a4f" stroke-width="12" opacity=".65"/>
  <path d="M208 570 L464 334 L706 570" fill="none" stroke="#22221e" stroke-width="7" opacity=".35"/>
  <g transform="translate(500 238)">
    <circle cx="44" cy="44" r="30" fill="#7b553b"/>
    <path d="M4 96 C40 72 86 72 126 96 L106 206 H24 Z" fill="#b65b39"/>
    <path d="M34 202 L20 316 M96 202 L118 316" stroke="#232a2d" stroke-width="22" stroke-linecap="round"/>
    <path d="M28 120 L-58 182 M102 120 L190 158" stroke="#7b553b" stroke-width="20" stroke-linecap="round"/>
    <path d="M-76 192 L-18 174" stroke="#232a2d" stroke-width="10" stroke-linecap="round"/>
  </g>
  <path d="M122 604 H792" stroke="#22221e" stroke-width="18"/>
</svg>
