<svg xmlns="http://www.w3.org/2000/svg" viewBox="0 0 900 620" role="img" aria-labelledby="title desc">
  <title id="title">Roof service tools</title>
  <desc id="desc">Roof restoration service tools laid over a terracotta roof texture.</desc>
  <defs>
    <linearGradient id="base" x1="0" y1="0" x2="1" y2="1">
      <stop offset="0" stop-color="#b5492f"/><stop offset="1" stop-color="#4c201c"/>
    </linearGradient>
  </defs>
  <rect width="900" height="620" fill="#f7efe4"/>
  <path d="M0 185 H900 V620 H0 Z" fill="url(#base)"/>
  <g opacity="0.25" stroke="#ffd4bb" stroke-width="6">
    <path d="M0 250 H900"/><path d="M0 335 H900"/><path d="M0 420 H900"/><path d="M0 505 H900"/>
    <path d="M95 185 V620"/><path d="M255 185 V620"/><path d="M415 185 V620"/><path d="M575 185 V620"/><path d="M735 185 V620"/>
  </g>
  <g transform="translate(220 76) rotate(-12)">
    <rect x="0" y="0" width="370" height="50" rx="14" fill="#f7efe4"/>
    <rect x="312" y="-20" width="70" height="90" rx="14" fill="#25231f"/>
  </g>
  <g transform="translate(360 102) rotate(28)">
    <rect x="0" y="0" width="65" height="330" rx="20" fill="#25231f"/>
    <rect x="-42" y="284" width="150" height="58" rx="22" fill="#f7efe4"/>
  </g>
</svg>
